<?xml version="1.0" standalone="no"?>
<!DOCTYPE svg PUBLIC "-//W3C//DTD SVG 20010904//EN"
 "http://www.w3.org/TR/2001/REC-SVG-20010904/DTD/svg10.dtd">
<svg version="1.0" xmlns="http://www.w3.org/2000/svg"
 width="640.000000pt" height="640.000000pt" viewBox="0 0 640.000000 640.000000"
 preserveAspectRatio="xMidYMid meet">

<g transform="translate(0.000000,640.000000) scale(0.100000,-0.100000)"
fill="#000000" stroke="none">
<path d="M6320 5776 c-41 -24 -124 -73 -183 -110 -60 -36 -110 -66 -113 -66
-12 0 -217 -132 -407 -263 -122 -84 -280 -191 -352 -239 -71 -47 -148 -98
-170 -114 -88 -60 -92 -62 -106 -53 -8 5 -72 27 -144 49 -71 23 -168 56 -215
75 -121 49 -227 74 -365 85 -66 6 -151 20 -190 31 -291 87 -305 89 -650 101
-334 12 -430 7 -620 -27 -490 -90 -633 -120 -695 -145 -25 -10 -90 -32 -145
-50 -124 -41 -231 -90 -310 -143 -101 -68 -301 -225 -318 -249 -9 -13 -37 -45
-62 -73 -25 -27 -71 -82 -102 -121 -56 -71 -56 -71 -82 -56 -26 14 -30 13
-112 -36 -47 -29 -148 -82 -225 -118 -76 -36 -184 -87 -239 -113 -55 -27 -133
-61 -172 -76 -40 -15 -79 -35 -87 -44 -21 -24 -66 -146 -66 -178 0 -55 72
-137 193 -221 57 -39 67 -50 61 -67 -13 -39 -16 -208 -5 -269 15 -77 98 -246
151 -308 94 -109 339 -197 636 -228 55 -6 207 -11 339 -11 257 -1 258 -1 600
66 99 19 230 40 292 46 218 22 284 2 643 -187 158 -83 245 -123 590 -274 85
-37 250 -115 365 -172 242 -121 402 -187 710 -293 307 -106 377 -123 580 -136
272 -18 439 -3 603 55 l39 14 12 -62 c7 -33 22 -130 35 -214 25 -163 33 -179
91 -210 68 -35 190 -52 253 -36 19 5 22 13 22 53 l0 48 -72 -1 c-50 -1 -73 3
-76 12 -3 9 -7 10 -17 2 -10 -8 -23 -7 -48 3 -34 15 -34 16 -41 88 -4 41 -9
90 -12 109 -3 27 -2 31 5 15 5 -11 10 -14 10 -7 1 7 6 10 13 6 7 -5 9 -2 5 8
-3 9 -1 20 5 26 6 6 14 70 18 144 5 73 13 158 19 188 46 244 63 373 47 367 -7
-3 -12 25 -14 79 -1 52 2 84 8 84 6 0 10 -30 10 -71 0 -44 4 -68 10 -64 12 7
12 338 1 405 l-8 45 -2 -39 c-2 -57 -8 -41 -14 39 -3 39 -3 59 2 45 l7 -25 7
24 c3 13 4 36 1 50 -3 14 -6 73 -7 131 -3 125 -29 248 -57 272 -24 19 -26 30
-5 22 13 -5 14 -2 5 21 -5 14 -10 39 -10 56 0 35 -17 109 -37 164 -35 91 -48
105 -59 60 -3 -14 -10 -25 -15 -25 -10 0 11 52 25 61 5 4 6 17 3 30 -3 13 -1
29 5 36 8 10 6 13 -6 13 -9 0 -16 5 -16 10 0 50 123 -103 201 -251 8 -14 29
-47 47 -74 35 -53 44 -86 12 -45 -11 14 -20 19 -20 12 0 -19 29 -72 40 -72 18
0 10 -18 -11 -23 -18 -5 -20 -10 -13 -54 8 -60 15 -72 26 -47 6 14 7 13 2 -6
-5 -22 -5 -85 1 -255 1 -22 2 -77 3 -122 1 -46 5 -83 10 -83 4 0 8 179 10 398
l3 397 -90 135 c-49 74 -117 166 -151 203 -34 37 -60 70 -57 73 2 3 38 20 80
38 41 18 107 52 146 75 l71 43 0 59 c0 33 -2 59 -6 59 -3 0 -31 -17 -62 -38
-97 -65 -389 -208 -497 -243 -36 -11 -65 -24 -65 -29 0 -4 -33 -27 -72 -51
-40 -24 -105 -64 -143 -90 -39 -25 -120 -72 -180 -104 -61 -32 -126 -68 -145
-80 -19 -12 -84 -48 -145 -80 -60 -31 -135 -72 -165 -90 -30 -17 -100 -58
-155 -90 -55 -32 -123 -73 -150 -92 -28 -18 -53 -33 -57 -33 -4 0 -36 -17 -70
-38 -35 -22 -131 -71 -213 -111 -83 -40 -230 -112 -328 -161 l-178 -88 -44 47
c-38 40 -41 47 -26 53 10 3 58 38 107 78 103 82 338 240 439 295 39 21 88 51
110 66 22 14 119 70 215 124 267 148 352 200 772 474 65 42 151 96 193 121 41
25 109 66 150 93 41 26 105 63 142 83 72 39 122 67 322 184 68 40 151 87 185
105 l61 34 3 50 c2 28 0 51 -3 51 -12 0 -156 -76 -265 -140 -175 -104 -293
-170 -302 -170 -4 0 -8 5 -8 12 0 6 -60 71 -134 144 l-135 132 82 50 c45 28
120 79 167 114 184 137 361 258 478 327 l122 72 0 59 0 59 -67 -39 c-217 -124
-310 -184 -484 -315 -53 -40 -105 -78 -117 -84 -11 -6 -27 -18 -35 -26 -9 -8
-68 -48 -131 -89 l-116 -74 -50 19 c-28 10 -57 19 -65 19 -21 0 -180 59 -201
75 -24 18 -40 5 251 199 127 85 282 190 345 235 141 99 198 135 463 291 l207
123 0 53 c0 30 -1 54 -2 54 -2 0 -37 -20 -78 -44z m-2771 -616 c85 0 152 -2
149 -5 -6 -6 -213 -18 -283 -16 l-50 1 44 -20 c25 -12 52 -19 60 -18 9 2 26
-7 37 -19 22 -24 68 -31 79 -13 5 8 11 8 19 1 7 -6 16 -7 20 -3 4 4 6 0 4 -8
-1 -8 -7 -19 -13 -23 -5 -5 6 -6 25 -3 33 5 34 5 15 -10 l-20 -15 20 -15 c11
-8 27 -13 35 -11 39 11 44 11 45 -2 0 -8 9 -17 20 -22 17 -6 17 -8 3 -8 -27
-1 -22 -14 14 -34 24 -14 33 -15 39 -5 4 7 11 9 16 5 4 -5 1 -12 -7 -17 -20
-12 0 -33 23 -24 15 5 17 49 3 72 -3 5 16 9 41 11 59 3 86 16 55 25 -35 12
-25 26 18 26 42 0 52 -12 23 -29 -17 -10 -17 -10 0 -11 9 0 17 4 17 9 0 5 7
12 16 15 12 4 14 1 9 -14 -5 -17 -1 -21 24 -26 38 -8 39 -17 6 -50 -27 -27
-36 -98 -12 -108 6 -3 -6 -3 -28 1 -22 3 -38 3 -35 0 11 -12 93 -35 106 -30
17 6 18 20 2 26 -8 3 -6 6 5 6 11 1 17 -6 17 -19 0 -11 -7 -20 -15 -20 -27 0
-16 -18 15 -25 17 -4 30 -11 30 -17 0 -6 6 -8 13 -5 7 3 18 -3 25 -13 6 -10
32 -25 57 -34 26 -8 69 -31 96 -51 27 -19 51 -35 54 -35 5 0 47 -34 76 -62 11
-10 19 -12 21 -6 2 6 11 4 21 -6 9 -10 15 -21 13 -25 -3 -4 8 -15 23 -24 26
-15 29 -15 49 3 12 11 28 20 37 20 21 0 45 24 45 45 0 11 7 15 23 13 12 -2 20
-7 19 -12 -2 -5 2 -13 10 -17 10 -7 10 -9 -2 -9 -12 0 -12 -2 -2 -9 11 -7 11
-11 0 -22 -8 -8 -17 -22 -21 -31 -9 -24 -28 -23 -34 1 -3 11 -11 22 -18 25
-19 7 -70 -43 -58 -55 6 -6 14 -4 23 6 16 19 30 19 30 0 0 -8 -7 -15 -16 -15
-10 0 0 -15 28 -43 24 -24 54 -58 68 -76 14 -18 33 -42 43 -53 9 -12 17 -24
17 -27 0 -3 12 -19 26 -36 14 -16 34 -44 45 -62 12 -18 26 -30 31 -27 7 4 8 2
4 -5 -8 -12 17 -76 34 -86 6 -3 10 -17 10 -30 0 -13 5 -27 10 -30 6 -4 10 6
10 21 0 20 3 25 11 17 13 -13 -5 -53 -23 -53 -9 0 -9 -3 0 -12 19 -19 15 -25
-34 -63 -36 -27 -50 -32 -60 -24 -11 9 -14 8 -14 -3 0 -20 -20 -37 -36 -31
-23 9 -16 25 7 18 15 -5 19 -4 14 4 -4 7 -1 19 7 28 11 14 11 16 -3 11 -13 -5
-16 -2 -11 14 4 15 7 17 13 6 6 -9 9 -4 9 15 0 15 -4 27 -10 27 -5 0 -10 13
-10 29 0 17 -5 33 -10 36 -6 4 -20 25 -33 47 -12 22 -29 53 -37 68 -26 47 -83
109 -94 103 -6 -3 -8 -2 -3 2 9 11 -42 65 -62 66 -11 0 -12 2 -3 6 6 2 10 9 7
13 -3 5 -13 6 -22 3 -11 -4 -14 -3 -9 5 8 14 -46 69 -90 92 -21 12 -28 12 -31
2 -3 -6 -9 -10 -14 -6 -5 3 -9 1 -9 -5 0 -6 -7 -8 -15 -5 -8 4 -12 10 -9 15 3
5 -2 6 -10 3 -11 -4 -16 0 -16 10 0 9 -7 16 -15 16 -11 0 -14 -15 -12 -74 1
-41 5 -72 8 -70 4 2 9 -2 12 -10 4 -9 0 -12 -13 -9 -10 3 -21 15 -23 27 -2 11
-2 1 0 -23 7 -70 20 -94 45 -88 19 5 20 5 5 -10 -12 -12 -13 -21 -5 -39 14
-29 32 -32 23 -4 -3 11 -2 20 3 20 13 0 32 -69 21 -76 -5 -3 -9 2 -9 10 0 9
-7 16 -15 16 -24 0 0 -38 36 -58 16 -10 29 -20 29 -23 0 -3 7 -14 16 -25 15
-18 15 -17 10 13 -5 27 -2 32 12 30 39 -6 46 -19 21 -39 -21 -16 -21 -18 -4
-13 16 5 16 3 -2 -6 -13 -7 -23 -20 -23 -31 0 -10 -3 -18 -7 -18 -10 0 -68 82
-68 95 0 5 -10 19 -22 31 -12 12 -25 34 -29 48 -3 14 -10 26 -16 26 -5 0 -6 9
-3 20 3 11 2 20 -3 20 -5 0 -14 24 -21 53 -38 173 -39 182 -28 189 9 6 9 10 1
16 -13 9 -36 73 -29 81 8 8 25 -20 25 -42 0 -10 6 -20 14 -23 11 -4 13 -12 5
-31 -14 -39 -9 -52 7 -15 8 18 21 35 29 39 10 3 13 12 10 24 -4 11 -3 19 2 19
14 0 28 -15 28 -29 0 -8 5 -16 11 -18 20 -7 8 40 -15 58 -25 20 -46 25 -36 9
3 -5 1 -18 -4 -27 -8 -15 -10 -11 -11 20 0 27 -5 39 -17 44 -10 3 -28 15 -40
26 -25 23 -32 7 -8 -17 8 -8 11 -17 6 -21 -5 -3 -13 4 -16 16 -4 12 -26 29
-51 39 -24 11 -44 24 -44 30 0 5 -6 10 -13 10 -8 0 -22 9 -32 20 -10 11 -24
20 -32 20 -7 0 -13 5 -13 11 0 7 -10 9 -26 5 -16 -4 -23 -3 -20 3 4 6 -19 22
-51 37 -133 60 -167 78 -184 95 -11 11 -19 14 -19 8 0 -5 -5 -7 -10 -4 -6 3
-13 -1 -16 -9 -3 -9 -15 -16 -25 -16 -26 0 -25 -36 1 -43 12 -3 20 -14 20 -26
0 -14 -6 -21 -20 -21 -14 0 -20 7 -20 21 0 17 -3 19 -14 10 -10 -9 -16 -8 -26
4 -11 13 -17 10 -43 -25 -22 -29 -39 -40 -57 -40 -20 0 -31 -9 -47 -37 -28
-51 -19 -69 52 -104 33 -16 52 -27 43 -25 -12 4 -15 1 -11 -10 3 -8 19 -14 39
-14 26 0 32 3 28 15 -4 10 0 15 13 15 16 0 19 -8 21 -51 2 -44 0 -50 -15 -47
-10 2 -17 10 -16 16 2 7 -1 12 -6 12 -5 0 -16 3 -25 6 -9 3 -16 2 -16 -3 0
-13 71 -58 115 -74 39 -14 59 -4 32 16 -16 12 -16 13 -1 19 16 6 15 8 -2 21
-18 13 -18 14 11 25 17 7 48 13 70 15 22 1 34 0 28 -2 -7 -3 -13 -20 -13 -39
0 -19 -3 -34 -7 -35 -5 0 -17 -2 -28 -4 -10 -2 -26 2 -35 8 -13 10 -13 10 -2
-5 16 -20 8 -38 -16 -38 -11 0 -4 -8 17 -21 19 -11 42 -18 52 -16 11 3 16 0
13 -8 -3 -7 7 -24 22 -38 21 -19 30 -23 39 -14 7 7 9 14 4 15 -5 2 -9 10 -9
18 0 13 5 16 40 18 8 1 19 11 25 24 5 12 13 22 17 22 15 0 8 -16 -24 -55 -18
-22 -37 -46 -43 -54 -19 -27 -100 -106 -139 -136 -38 -29 -42 -30 -152 -30
-77 0 -117 4 -125 13 -11 10 -10 12 2 12 7 0 25 3 39 5 22 5 22 4 5 -4 -17 -8
-16 -10 12 -10 18 -1 55 4 83 10 39 8 50 15 50 30 0 12 10 23 26 29 17 7 24
15 20 25 -3 9 0 15 10 15 8 0 12 -4 9 -10 -3 -5 -1 -10 4 -10 6 0 11 -4 11
-10 0 -5 -9 -10 -20 -10 -15 0 -20 -7 -20 -24 0 -31 19 -44 34 -24 6 8 21 20
34 27 12 7 20 17 16 23 -4 7 -10 5 -16 -6 -13 -23 -26 -12 -23 18 4 32 -16 49
-68 55 -34 5 -43 10 -45 29 -2 12 -10 22 -18 22 -8 0 -14 5 -14 11 0 6 -7 9
-15 5 -8 -3 -15 -2 -15 3 0 5 -13 14 -30 21 -16 7 -30 16 -30 21 0 5 -8 9 -18
9 -10 0 -23 5 -29 11 -7 7 -12 3 -17 -15 -6 -24 -26 -37 -26 -18 0 5 -10 13
-21 18 -20 9 -21 11 -5 27 10 9 23 15 29 11 7 -3 -1 6 -17 19 -31 27 -61 26
-69 -4 -7 -27 -27 -24 -27 5 0 13 8 27 17 30 14 6 12 9 -11 21 -33 17 -48 19
-26 4 11 -8 12 -12 3 -16 -7 -2 -13 -9 -13 -14 0 -6 5 -7 10 -4 6 3 10 -3 10
-15 0 -12 -4 -19 -9 -16 -5 3 -12 -5 -15 -19 -8 -30 -41 -34 -49 -5 -3 13 -11
18 -20 14 -9 -3 -13 -12 -10 -20 4 -10 -3 -14 -21 -14 -14 0 -26 -3 -26 -7 0
-13 20 -39 20 -28 0 6 5 2 10 -7 6 -9 24 -19 40 -23 17 -4 28 -11 24 -16 -6
-11 -55 -12 -53 -1 4 22 -3 23 -21 1 l-21 -23 -26 29 c-16 20 -27 26 -30 17
-3 -6 -9 -10 -14 -6 -5 3 -9 -2 -9 -11 0 -9 22 -25 53 -39 116 -54 144 -66
156 -66 16 0 42 -65 34 -85 -4 -13 -14 -16 -42 -12 -20 3 -81 11 -136 17 -205
22 -363 81 -447 167 -58 60 -101 139 -147 268 -35 97 -37 100 -69 103 -27 3
-35 -1 -50 -29 -9 -17 -30 -49 -47 -70 -16 -21 -52 -67 -79 -101 -69 -88 -123
-144 -182 -188 -28 -21 -57 -45 -65 -52 -8 -8 -60 -44 -116 -81 -105 -69 -260
-135 -364 -156 -71 -14 -350 -34 -464 -34 -49 0 -81 -2 -70 -5 11 -3 -23 -11
-75 -17 -52 -7 -104 -8 -115 -4 -13 5 -15 8 -5 9 12 0 11 4 -4 15 -32 24 -1
27 151 17 82 -6 142 -6 148 0 6 5 2 8 -10 7 -11 -1 -40 -1 -65 0 -32 2 -39 5
-26 10 10 4 -53 8 -142 8 -136 1 -161 -1 -166 -14 -4 -9 1 -21 11 -29 16 -12
16 -13 -9 -14 -16 0 -28 -4 -28 -10 0 -5 -7 -10 -15 -10 -8 0 -15 5 -15 10 0
6 7 13 15 16 8 4 15 15 15 25 0 16 -7 19 -52 17 -29 -1 -59 -6 -65 -11 -9 -6
-30 0 -65 18 -77 40 -82 45 -61 62 17 14 17 14 1 9 -50 -17 -46 -14 31 24 47
22 90 38 95 36 6 -2 3 -5 -6 -5 -10 -1 -18 -5 -18 -11 0 -5 13 -8 29 -7 24 2
27 5 18 16 -10 12 -9 13 8 7 38 -14 112 -19 119 -7 9 13 43 15 48 2 3 -8 145
-17 173 -11 6 1 22 1 36 0 15 0 33 6 42 14 9 9 24 16 34 17 17 0 17 1 0 8 -17
6 -17 8 -3 20 8 7 21 9 27 5 8 -5 10 -2 6 8 -4 12 0 15 16 11 16 -3 18 -2 9 5
-11 7 -11 10 2 15 26 10 19 30 -8 25 -16 -3 -23 -1 -19 8 2 6 0 14 -5 18 -12
7 -54 -23 -47 -35 4 -5 -1 -12 -9 -15 -9 -3 -16 -15 -16 -26 0 -10 -4 -16 -10
-13 -5 3 -19 0 -31 -8 -15 -11 -17 -16 -7 -20 7 -3 3 -6 -9 -6 -14 -1 -23 5
-23 14 0 8 7 15 16 15 9 0 30 17 47 37 138 160 209 232 224 226 13 -5 15 -2
10 11 -8 21 22 65 41 58 7 -2 10 2 6 12 -8 22 2 20 26 -4 24 -24 27 -38 4 -19
-13 10 -17 10 -24 -1 -5 -8 -12 -11 -16 -7 -4 4 -13 2 -20 -4 -17 -14 0 -49
23 -49 14 0 14 2 -3 14 -10 8 -15 18 -11 22 4 5 12 2 16 -5 7 -11 13 -11 32
-1 13 7 28 19 32 27 5 7 12 11 18 8 5 -4 12 2 15 12 3 10 10 26 15 35 5 10 9
24 9 32 0 19 -26 40 -34 27 -4 -5 -2 -12 4 -16 13 -8 13 -35 0 -35 -5 0 -7 7
-4 15 4 10 0 15 -10 15 -9 0 -19 -6 -22 -14 -3 -8 -12 -17 -20 -20 -25 -10 -7
14 111 139 41 43 181 155 194 155 5 0 21 11 37 25 30 26 50 33 38 13 -5 -8 3
-9 29 -5 21 3 37 2 37 -4 0 -5 14 -9 30 -9 17 0 30 5 30 10 0 6 -7 10 -16 10
-11 0 -14 6 -9 20 7 23 -10 27 -22 5 -5 -8 -14 -11 -20 -7 -20 12 -2 26 97 74
100 48 185 78 285 98 33 6 70 18 82 26 11 7 47 18 80 23 32 6 121 23 198 39
121 26 329 61 445 76 19 2 125 2 235 0 110 -2 269 -4 354 -4z m209 -17 c-10
-2 -26 -2 -35 0 -10 3 -2 5 17 5 19 0 27 -2 18 -5z m-143 -13 c4 -6 -14 -9
-47 -8 l-53 1 45 7 c25 4 46 8 47 8 1 1 5 -2 8 -8z m78 3 c-7 -2 -19 -2 -25 0
-7 3 -2 5 12 5 14 0 19 -2 13 -5z m199 -24 c42 -13 87 -31 100 -40 16 -12 -2
-9 -62 12 -47 16 -86 29 -87 29 -1 0 0 -16 2 -35 4 -32 3 -35 -20 -35 -26 0
-45 25 -45 59 0 12 6 21 13 21 8 0 7 4 -3 11 -19 13 -2 10 102 -22z m-129 14
c-7 -2 -13 -13 -13 -23 0 -10 -4 -20 -10 -22 -5 -1 -11 -15 -12 -30 -2 -22 -8
-28 -25 -28 -19 0 -21 4 -16 34 5 31 3 33 -21 32 -14 0 -26 4 -25 9 0 6 7 9
16 7 8 -2 12 1 9 7 -4 5 6 12 21 14 41 6 90 6 76 0z m-183 -38 c0 -9 -6 -12
-15 -9 -8 4 -12 10 -9 15 8 14 24 10 24 -6z m524 -25 c22 -6 93 -14 156 -20
63 -5 147 -18 185 -30 87 -25 225 -82 225 -93 0 -4 14 -22 30 -40 17 -18 33
-40 36 -49 3 -11 16 -18 32 -18 19 0 23 -3 13 -9 -7 -5 -10 -14 -7 -20 4 -6
12 -8 18 -5 7 4 8 2 4 -4 -3 -6 2 -19 12 -29 23 -23 72 -100 72 -113 0 -5 3
-10 8 -10 4 0 20 -20 37 -44 16 -24 35 -41 42 -39 15 6 17 39 3 48 -5 3 -10
17 -10 31 0 24 1 24 25 8 24 -16 27 -16 45 1 11 10 21 16 23 14 28 -41 39
-119 18 -119 -13 0 -19 31 -10 55 6 17 2 21 -16 23 -22 2 -40 -21 -30 -38 3
-4 -4 -10 -15 -13 -25 -6 -26 -37 -1 -63 36 -38 73 -65 83 -62 6 2 42 -27 82
-64 71 -68 81 -73 151 -68 29 2 29 1 12 -17 -9 -11 -17 -27 -17 -36 0 -19 28
-49 40 -42 4 3 7 -3 6 -12 0 -10 4 -18 11 -18 6 0 15 -4 20 -9 4 -5 3 -6 -4
-2 -7 3 -14 -2 -17 -12 -4 -11 -30 -32 -59 -47 -28 -16 -64 -36 -79 -47 -34
-23 -37 -23 -32 5 2 12 2 16 -2 10 -3 -7 -13 -13 -22 -13 -13 0 -12 3 4 14 13
10 23 11 31 4 15 -12 53 7 53 27 0 8 -10 25 -22 37 l-21 21 -8 -20 c-4 -12
-17 -24 -28 -28 -12 -3 -21 -13 -21 -22 0 -10 -6 -14 -20 -10 -24 6 -33 -6
-25 -34 5 -16 12 -19 31 -15 32 8 31 -7 -2 -29 -15 -9 -23 -12 -20 -6 5 7 -4
11 -23 11 -29 0 -31 2 -31 38 0 28 6 41 23 52 12 8 25 13 30 12 4 -1 7 2 7 7
0 5 8 8 17 7 21 -1 30 33 11 46 -8 6 -1 7 22 3 l35 -6 -45 39 c-40 36 -46 38
-58 23 -7 -9 -10 -10 -6 -2 5 11 3 13 -10 8 -11 -5 -15 -3 -10 5 5 7 2 9 -7 6
-10 -4 -15 1 -16 13 -1 10 2 19 8 19 5 0 9 -4 9 -10 0 -5 5 -10 12 -10 6 0 3
9 -7 20 -10 11 -22 20 -27 20 -5 0 -26 14 -47 30 -26 21 -43 28 -56 24 -14 -6
-17 -4 -12 9 3 9 2 17 -3 17 -6 0 -10 4 -10 10 0 5 -18 27 -40 47 -22 21 -40
42 -40 47 0 8 -35 55 -65 87 -8 9 -15 20 -15 25 0 5 -9 24 -21 43 -17 28 -23
32 -31 20 -8 -11 -9 -11 -5 2 3 10 -6 30 -23 50 -16 17 -40 47 -52 65 -25 36
-34 41 -41 22 -2 -7 -3 -4 -1 8 5 28 -6 37 -24 21 -13 -10 -15 -9 -10 4 5 13
2 16 -14 11 -17 -4 -20 -2 -15 11 6 16 2 19 -33 21 -8 1 -14 6 -13 11 3 16
-68 37 -83 25 -8 -7 -14 -7 -18 -1 -3 5 0 12 6 14 7 3 3 6 -9 6 -12 1 -23 -3
-25 -7 -4 -11 -78 -3 -78 8 0 5 11 7 25 5 14 -1 25 2 25 6 0 5 -7 9 -15 9 -8
0 -23 4 -33 9 -9 6 -42 18 -72 27 -30 9 -79 30 -108 46 l-53 28 -8 -22 -8 -22
-5 22 c-4 12 -2 22 3 22 4 0 5 8 2 17 -5 13 -2 15 12 10 9 -4 36 -12 59 -17z
m-149 0 c3 -5 1 -10 -4 -10 -6 0 -11 5 -11 10 0 6 2 10 4 10 3 0 8 -4 11 -10z
m-90 -50 c3 -5 12 -7 20 -3 8 3 15 0 15 -6 0 -6 -5 -11 -11 -11 -5 0 -8 -4 -5
-8 3 -5 -5 -8 -17 -8 -24 1 -42 21 -32 36 8 13 22 13 30 0z m242 -16 c-3 -3
-12 -4 -19 -1 -8 3 -5 6 6 6 11 1 17 -2 13 -5z m54 -27 c-6 -8 -7 -18 -3 -22
4 -5 1 -5 -5 -1 -19 10 -16 36 3 36 13 0 14 -3 5 -13z m-348 -29 c-13 -12 -25
-19 -29 -15 -10 10 16 37 34 37 13 0 12 -4 -5 -22z m914 -34 c-3 -3 -12 -4
-19 -1 -8 3 -5 6 6 6 11 1 17 -2 13 -5z m99 -29 c63 -23 65 -24 24 -19 -25 4
-56 8 -70 9 -14 1 -33 6 -43 10 -15 6 -16 10 -5 16 18 12 15 12 94 -16z m-474
-29 l-4 -45 -96 -3 -97 -3 3 42 4 42 81 4 c45 1 89 4 97 5 12 2 14 -7 12 -42z
m498 -12 c0 -2 -9 -4 -21 -4 -11 0 -18 4 -14 10 5 8 35 3 35 -6z m-3100 -4 c0
-5 -5 -10 -11 -10 -5 0 -7 5 -4 10 3 6 8 10 11 10 2 0 4 -4 4 -10z m2740 -21
c-11 -8 -6 -9 20 -5 19 3 29 2 23 -2 -7 -4 -14 -17 -16 -27 -8 -42 -19 -55
-47 -55 -27 0 -28 2 -23 40 3 23 2 40 -3 39 -25 -4 -86 2 -80 9 4 4 11 7 14 8
4 0 14 4 22 7 25 10 84 13 95 4 6 -5 4 -12 -5 -18z m397 6 c0 -8 -4 -12 -9 -9
-5 3 -6 10 -3 15 9 13 12 11 12 -6z m73 4 c0 -5 4 -8 10 -4 10 6 100 -33 100
-44 0 -19 -15 -19 -27 -1 -8 11 -19 18 -24 15 -5 -4 -9 -1 -9 4 0 6 -11 11
-25 11 -20 0 -25 -5 -26 -27 -1 -16 -1 -31 0 -35 0 -4 -11 -2 -25 4 l-25 12
22 12 c16 8 18 13 8 17 -12 5 -12 7 1 16 12 9 10 11 -10 11 -20 0 -22 2 -10
10 20 13 40 13 40 -1z m-393 -51 c-3 -8 -6 -5 -6 6 -1 11 2 17 5 13 3 -3 4
-12 1 -19z m287 -3 c17 -13 18 -17 6 -28 -10 -10 -11 -9 -5 1 4 9 0 15 -14 19
-12 3 -21 9 -21 14 0 13 12 11 34 -6z m-220 -21 c25 -24 19 -36 -9 -18 -25 16
-33 34 -16 34 5 0 17 -7 25 -16z m494 7 c10 -6 10 -10 -3 -21 -13 -11 -15 -10
-9 3 3 10 -1 17 -13 20 -12 3 -13 5 -3 6 8 0 21 -3 28 -8z m42 -21 c0 -5 -7
-10 -16 -10 -8 0 -12 5 -9 10 3 6 10 10 16 10 5 0 9 -4 9 -10z m-860 -21 c11
-7 4 -8 -25 -3 -50 8 -58 14 -19 14 16 0 36 -5 44 -11z m980 -11 c56 -17 150
-61 150 -70 0 -13 -12 -10 -32 9 -33 29 -29 7 6 -30 32 -35 66 -49 66 -27 0 5
-7 7 -15 4 -8 -4 -15 -1 -15 5 0 6 6 11 13 11 8 0 7 4 -3 10 -11 7 -11 10 -2
10 7 0 24 -11 38 -25 14 -14 29 -25 34 -25 5 0 12 -4 15 -10 4 -7 -3 -7 -20 0
-31 12 -38 12 -32 3 3 -5 -1 -14 -9 -21 -8 -7 -14 -10 -14 -6 0 4 -3 5 -6 1
-6 -5 32 -96 45 -107 16 -14 51 -104 51 -131 0 -17 4 -28 9 -25 4 3 6 18 3 32
-3 19 -1 25 7 20 6 -4 11 -14 11 -22 0 -8 5 -12 10 -9 6 4 8 10 5 14 -2 5 2
17 10 27 13 17 14 17 15 2 0 -9 -6 -19 -12 -21 -7 -3 -5 -6 6 -6 17 -1 16 -3
-5 -18 -13 -10 -35 -24 -48 -31 -13 -8 -39 -22 -57 -32 -18 -11 -51 -30 -73
-45 -39 -24 -55 -23 -29 3 9 9 9 12 -2 12 -11 1 -9 5 5 16 20 15 21 20 4 40
-5 6 -4 22 3 40 9 26 6 38 -26 102 -20 39 -41 72 -46 72 -6 0 -9 5 -7 11 1 6
-4 14 -12 17 -9 3 -11 0 -6 -9 4 -8 -10 4 -32 26 -21 22 -35 43 -30 46 5 4 3
10 -4 15 -7 4 -14 3 -17 -4 -5 -15 -32 -16 -32 -2 0 6 4 10 8 10 4 0 16 13 25
30 16 27 17 32 2 60 -9 17 -23 30 -35 30 -10 0 -22 5 -25 11 -8 11 44 5 105
-13z m-893 -15 c-3 -3 -11 -2 -17 2 -9 6 -9 10 1 16 14 8 27 -7 16 -18z m287
2 c3 -9 3 -35 -1 -60 -5 -39 -8 -43 -24 -34 -23 12 -25 47 -3 56 11 4 14 13
10 29 -7 26 8 33 18 9z m272 0 c4 -8 1 -22 -6 -30 -7 -8 -9 -15 -5 -15 5 0 6
-2 3 -5 -3 -3 -13 -3 -22 1 -16 6 -22 44 -9 57 11 12 33 7 39 -8z m-1011 -15
l30 -13 -25 -7 c-14 -5 -19 -8 -12 -9 19 -2 16 -81 -3 -81 -11 0 -15 11 -15
40 0 37 -2 40 -29 40 -16 0 -45 7 -64 15 -23 9 -38 11 -42 5 -3 -6 -16 -10
-28 -9 -20 1 -20 2 3 9 14 4 19 8 13 9 -7 1 -13 5 -13 10 0 13 149 6 185 -9z
m1165 -11 c0 -14 7 -19 25 -19 14 0 25 -5 25 -11 0 -5 -4 -7 -10 -4 -5 3 -10
2 -10 -4 0 -5 -9 -9 -19 -8 -11 0 -18 4 -15 8 2 4 -3 12 -12 17 -11 6 -14 16
-9 31 8 25 25 19 25 -10z m105 21 c3 -5 1 -10 -4 -10 -6 0 -11 5 -11 10 0 6 2
10 4 10 3 0 8 -4 11 -10z m-562 -16 c-6 -17 -39 -24 -53 -10 -9 8 -14 8 -17
-1 -6 -15 -83 -18 -83 -3 0 6 18 10 40 10 22 0 40 4 40 10 0 5 18 9 39 8 27
-1 38 -5 34 -14z m-333 -14 c0 -5 -5 -10 -11 -10 -5 0 -7 5 -4 10 3 6 8 10 11
10 2 0 4 -4 4 -10z m877 -47 c11 -9 12 -16 4 -32 -6 -11 -11 -40 -11 -65 0
-25 -4 -46 -9 -46 -5 0 -17 -7 -26 -16 -15 -16 -18 -15 -43 10 -15 14 -21 26
-14 26 6 0 12 8 12 18 0 15 2 15 11 2 7 -11 9 0 5 42 -4 45 -2 57 10 62 13 5
15 1 10 -17 -4 -17 -1 -24 9 -24 8 0 12 4 10 8 -3 4 -2 22 2 40 3 19 8 27 11
19 2 -8 11 -20 19 -27z m-1597 8 c0 -12 -9 -21 -24 -25 -13 -3 -31 -9 -40 -12
-11 -4 -16 0 -16 13 0 14 10 23 33 31 46 14 47 14 47 -7z m477 -17 c-3 -3 -12
-4 -19 -1 -8 3 -5 6 6 6 11 1 17 -2 13 -5z m878 -15 c4 -11 4 -23 1 -26 -3 -4
-6 1 -6 10 0 10 -4 17 -10 17 -5 0 -10 5 -10 10 0 18 19 10 25 -11z m-828 -8
l23 -19 -33 -54 c-51 -85 -73 -112 -85 -104 -7 4 -12 16 -12 27 0 11 -4 18 -9
15 -5 -3 -12 1 -15 10 -3 8 -2 12 4 9 6 -3 10 1 10 9 0 9 -4 16 -9 16 -5 0 -7
9 -4 20 5 17 8 18 32 6 14 -7 31 -11 38 -9 15 5 26 -14 13 -22 -5 -3 -10 -11
-10 -18 0 -6 6 -2 14 8 8 11 12 23 10 26 -2 4 5 14 16 24 11 10 20 25 20 34 0
12 -6 9 -20 -9 -15 -19 -20 -21 -20 -8 0 9 6 18 13 21 6 2 9 8 4 12 -4 5 -13
1 -20 -7 -10 -13 -17 -14 -37 -5 l-25 10 25 5 c14 2 29 8 35 13 12 12 16 11
42 -10z m-527 -25 c0 -12 -6 -13 -30 -5 -16 6 -30 13 -30 15 0 2 14 4 30 4 20
0 30 -5 30 -14z m940 -6 c11 -11 20 -28 20 -37 -1 -14 -6 -12 -25 10 -38 42
-33 65 5 27z m1070 -46 c27 -26 50 -52 50 -58 0 -6 -6 -3 -14 6 -10 14 -15 15
-26 5 -10 -10 -12 -8 -7 10 3 14 1 21 -7 20 -6 -1 -10 4 -8 11 1 6 -4 12 -12
12 -8 0 -17 7 -20 16 -5 14 -9 12 -26 -7 -12 -15 -19 -19 -20 -10 0 11 25 39
37 41 1 0 25 -21 53 -46z m-97 -5 c3 -13 1 -19 -6 -16 -15 5 -22 37 -9 37 5 0
12 -9 15 -21z m-1216 -46 c-3 -10 -5 -4 -5 12 0 17 2 24 5 18 2 -7 2 -21 0
-30z m276 30 c-7 -2 -19 -2 -25 0 -7 3 -2 5 12 5 14 0 19 -2 13 -5z m664 1
c-3 -3 -12 -4 -19 -1 -8 3 -5 6 6 6 11 1 17 -2 13 -5z m-3877 -14 c0 -5 -4
-10 -10 -10 -5 0 -10 5 -10 10 0 6 5 10 10 10 6 0 10 -4 10 -10z m3715 0 c3
-5 -1 -10 -10 -10 -9 0 -13 5 -10 10 3 6 8 10 10 10 2 0 7 -4 10 -10z m518
-19 c4 -1 7 -5 7 -10 0 -10 -38 -3 -45 9 -3 5 3 7 12 5 10 -2 21 -4 26 -4z
m-3088 -74 c52 -128 120 -215 222 -283 106 -70 199 -97 437 -125 242 -28 584
-25 631 5 49 32 175 164 270 283 49 62 91 111 93 108 2 -2 14 -52 27 -112 28
-134 42 -173 88 -254 47 -84 168 -233 239 -295 31 -27 57 -52 57 -56 1 -3 -23
-20 -51 -36 -29 -16 -80 -45 -113 -64 -33 -19 -123 -72 -200 -117 -162 -95
-322 -202 -416 -278 -37 -29 -97 -70 -135 -91 -56 -31 -69 -43 -76 -70 -11
-41 -2 -57 90 -159 38 -43 75 -74 91 -78 14 -3 35 -19 46 -35 12 -17 29 -30
41 -30 12 0 72 25 135 56 144 71 623 293 709 329 36 15 111 51 166 81 111 59
131 63 172 37 127 -82 300 -258 506 -517 180 -225 278 -448 293 -662 l6 -92
-39 -13 c-29 -11 -103 -14 -299 -14 -234 1 -270 3 -365 24 -113 25 -571 183
-685 236 -38 18 -88 38 -110 45 -22 7 -143 63 -270 125 -126 62 -284 136 -350
165 -209 92 -378 169 -455 209 -271 139 -335 171 -420 211 l-95 44 -132 4
c-154 5 -235 -5 -503 -58 -278 -54 -322 -60 -480 -60 l-142 0 7 28 c39 155 32
446 -16 622 -26 95 -70 207 -103 259 -14 22 -26 45 -26 50 0 5 39 12 88 16
219 17 407 80 577 195 93 62 169 123 345 280 15 14 36 41 45 60 26 52 56 91
67 88 5 -2 20 -29 33 -61z m1415 36 c0 -25 -1 -26 -16 -11 -9 9 -13 21 -10 27
13 20 26 11 26 -16z m1374 21 c10 -4 16 -18 16 -40 0 -36 -11 -43 -32 -21 -14
16 -51 10 -41 -6 3 -5 1 -7 -5 -4 -5 4 -8 16 -5 27 3 11 0 20 -6 20 -23 0 -10
19 17 23 15 2 30 5 34 6 3 0 13 -2 22 -5z m390 -36 c-4 -7 -3 -8 5 -4 6 4 18
2 27 -4 12 -11 12 -14 -3 -26 -10 -7 -22 -13 -28 -13 -5 0 -1 6 9 14 11 8 16
15 10 15 -15 0 -30 -14 -39 -35 -7 -16 -9 -17 -12 -4 -2 8 2 29 8 45 7 16 11
36 10 44 -1 11 1 10 9 -3 6 -9 8 -22 4 -29z m-920 21 c-4 -8 1 -9 17 -4 26 8
27 8 49 6 12 -1 12 -3 2 -10 -11 -6 -10 -11 3 -25 9 -9 23 -16 31 -16 8 0 14
-9 14 -21 0 -14 -5 -19 -14 -16 -8 3 -32 11 -54 18 -40 12 -70 47 -58 68 4 6
9 11 12 11 3 0 2 -5 -2 -11z m-76 -34 c-3 -3 -9 2 -12 12 -6 14 -5 15 5 6 7
-7 10 -15 7 -18z m-648 0 c0 -1 -8 -9 -17 -18 -17 -14 -18 -14 -19 7 -1 18 2
22 17 19 11 -3 19 -6 19 -8z m1156 -12 c-7 -7 -26 7 -26 19 0 6 6 6 15 -2 9
-7 13 -15 11 -17z m394 17 c0 -5 -4 -10 -10 -10 -5 0 -10 5 -10 10 0 6 5 10
10 10 6 0 10 -4 10 -10z m-2210 -25 c-7 -9 -15 -13 -17 -11 -7 7 7 26 19 26 6
0 6 -6 -2 -15z m580 -3 c0 -4 -4 -13 -9 -21 -8 -12 -12 -12 -25 -2 -11 9 -16
10 -16 2 0 -6 -5 -11 -11 -11 -8 0 -8 4 0 14 7 8 21 13 33 11 14 -3 18 0 14
11 -3 9 -1 12 4 9 6 -3 10 -9 10 -13z m485 -23 c-4 -5 1 -9 9 -9 9 0 16 -4 16
-9 0 -5 -20 -11 -45 -13 -25 -2 -45 0 -45 4 0 5 12 8 26 8 14 0 23 4 19 10 -8
13 4 32 16 24 5 -3 7 -10 4 -15z m332 -4 c9 -25 -4 -29 -17 -6 -7 15 -7 21 0
21 6 0 13 -7 17 -15z m583 5 c0 -5 -7 -10 -16 -10 -8 0 -12 5 -9 10 3 6 10 10
16 10 5 0 9 -4 9 -10z m45 0 c3 -5 1 -10 -4 -10 -6 0 -11 5 -11 10 0 6 2 10 4
10 3 0 8 -4 11 -10z m-1568 -16 c-3 -3 -12 -4 -19 -1 -8 3 -5 6 6 6 11 1 17
-2 13 -5z m947 -51 c12 -31 -4 -26 -39 12 -19 22 -35 40 -35 42 0 9 69 -41 74
-54z m486 53 c0 -11 -19 -15 -25 -6 -3 5 1 10 9 10 9 0 16 -2 16 -4z m-1360
-16 c0 -5 -2 -10 -4 -10 -3 0 -8 5 -11 10 -3 6 -1 10 4 10 6 0 11 -4 11 -10z
m40 0 c0 -5 -4 -10 -10 -10 -5 0 -10 5 -10 10 0 6 5 10 10 10 6 0 10 -4 10
-10z m-492 -35 l27 -25 -33 0 c-31 0 -32 -2 -32 -40 0 -25 5 -40 12 -40 7 0 2
-7 -10 -16 -21 -15 -25 -15 -42 1 -14 12 -27 15 -47 10 -15 -3 -25 -4 -21 0 3
4 0 22 -8 40 -16 39 -18 57 -4 35 6 -10 10 -11 10 -2 0 18 21 15 36 -5 12 -16
13 -16 14 -1 0 14 53 68 66 68 3 0 17 -11 32 -25z m77 15 c3 -5 1 -10 -4 -10
-6 0 -11 -7 -11 -15 0 -8 -7 -15 -15 -15 -15 0 -21 31 -8 43 10 10 31 8 38 -3z
m1426 -12 c1 -13 1 -27 0 -32 -3 -13 41 -56 50 -50 5 3 6 -2 3 -10 -4 -11 0
-16 10 -16 9 0 16 5 16 11 0 6 9 9 19 6 12 -3 22 1 25 9 6 15 46 20 46 5 0
-17 -27 -30 -54 -25 -20 3 -27 1 -24 -8 8 -23 -18 -37 -56 -31 -30 5 -36 10
-37 32 -1 14 -1 29 0 33 0 4 -7 4 -16 1 -12 -5 -15 -2 -10 10 3 9 2 19 -4 22
-5 4 -7 11 -4 16 4 5 0 12 -9 15 -22 9 -7 34 20 34 18 0 24 -6 25 -22z m-463
-9 c2 -5 13 -10 25 -10 17 -1 18 -2 5 -6 -10 -2 -18 -10 -18 -18 0 -16 -33
-30 -38 -16 -2 7 -10 4 -19 -5 -23 -23 -37 4 -17 33 9 14 10 23 4 23 -22 0
-40 -29 -41 -67 0 -29 -2 -33 -8 -18 -13 33 -1 82 22 93 25 10 80 5 85 -9z
m-3552 -49 c-14 -17 -26 -42 -26 -56 0 -13 -4 -24 -10 -24 -6 0 -6 -9 0 -24 8
-21 5 -24 -22 -30 -39 -8 -50 1 -14 10 21 5 24 9 15 20 -11 14 -55 10 -73 -7
-5 -4 -15 -5 -24 -2 -11 5 -13 3 -7 -7 6 -9 4 -11 -6 -5 -17 11 -93 6 -97 -6
-2 -5 -16 -9 -30 -9 l-27 0 32 18 c85 46 308 158 312 156 2 -2 -8 -17 -23 -34z
m3862 16 c-7 -8 -15 -12 -17 -11 -5 6 10 25 20 25 5 0 4 -6 -3 -14z m-1528 -6
c0 -5 -4 -10 -10 -10 -5 0 -10 5 -10 10 0 6 5 10 10 10 6 0 10 -4 10 -10z
m1303 -46 c-24 -18 -53 -18 -53 0 0 17 30 30 31 13 0 -7 5 1 11 18 11 29 11
29 20 6 6 -18 4 -27 -9 -37z m-1352 36 c5 0 9 -4 9 -8 0 -5 -13 -7 -30 -4 -16
2 -27 9 -24 14 3 5 13 7 21 4 8 -3 19 -6 24 -6z m1112 -10 c-3 -11 -7 -20 -9
-20 -2 0 -4 9 -4 20 0 11 4 20 9 20 5 0 7 -9 4 -20z m537 -8 c0 -21 -36 -46
-45 -32 -4 6 -3 19 0 30 8 25 45 27 45 2z m-1251 -7 c9 -1 16 -8 16 -16 0 -10
-13 -13 -50 -10 -57 3 -60 4 -51 26 5 13 13 15 37 10 17 -4 39 -8 48 -10z
m831 -54 c0 -17 5 -33 10 -36 18 -11 11 -22 -12 -19 -13 1 -26 3 -30 3 -5 1
-8 19 -8 41 0 33 3 40 20 40 15 0 20 -7 20 -29z m479 -13 c-1 -24 -4 -34 -6
-24 -4 15 -7 16 -14 5 -6 -10 -9 -2 -9 24 0 26 4 37 15 37 11 0 15 -11 14 -42z
m-354 -33 c8 -74 3 -85 -31 -85 -27 0 -28 8 -18 98 5 40 11 52 24 52 14 0 19
-12 25 -65z m65 39 c0 -8 -4 -12 -10 -9 -5 3 -10 13 -10 21 0 8 5 12 10 9 6
-3 10 -13 10 -21z m-1290 -4 c0 -11 -2 -20 -4 -20 -2 0 -6 9 -9 20 -3 11 -1
20 4 20 5 0 9 -9 9 -20z m1318 -27 c-6 -7 -8 -13 -5 -13 3 0 14 -3 24 -6 15
-5 15 -4 3 5 -10 7 -11 11 -3 11 20 0 33 -35 24 -66 -4 -16 -6 -36 -3 -44 4
-12 2 -11 -11 2 -9 9 -22 18 -29 20 -10 4 -10 8 1 21 17 22 7 47 -19 47 -20 0
-20 1 -4 31 12 24 18 29 24 18 5 -8 4 -19 -2 -26z m-3743 17 c3 -5 1 -10 -4
-10 -6 0 -11 5 -11 10 0 6 2 10 4 10 3 0 8 -4 11 -10z m2429 -31 c-4 -8 5 -10
32 -7 22 3 31 3 21 1 -18 -4 -18 -5 0 -18 16 -12 13 -13 -29 -12 -25 1 -42 5
-37 8 6 3 9 10 8 15 -2 14 0 24 7 24 3 0 2 -5 -2 -11z m1593 -36 c-3 -10 -5
-4 -5 12 0 17 2 24 5 18 2 -7 2 -21 0 -30z m-4037 17 c11 -7 3 -10 -30 -9 -34
0 -40 2 -25 9 27 12 37 12 55 0z m4025 -78 c-8 -9 -25 20 -18 31 3 5 10 2 15
-7 6 -10 7 -20 3 -24z m-305 3 c0 -8 -9 -15 -20 -15 -11 0 -20 7 -20 15 0 8 9
15 20 15 11 0 20 -7 20 -15z m115 -33 c-8 -8 -25 10 -19 20 4 6 9 5 15 -3 4
-7 6 -15 4 -17z m280 -27 c-48 -31 -72 -40 -77 -32 -9 15 10 27 30 19 9 -3 13
-1 9 5 -6 9 5 17 63 41 52 22 43 10 -25 -33z m-500 5 c-3 -5 1 -10 9 -10 9 0
16 -7 16 -16 0 -9 5 -12 12 -8 7 5 8 3 3 -6 -6 -10 -11 -10 -20 3 -7 10 -20
17 -30 17 -14 0 -15 3 -5 15 14 17 24 20 15 5z m1514 -39 c31 -30 47 -52 40
-56 -6 -4 -8 -18 -5 -31 4 -14 2 -24 -5 -24 -6 0 -9 15 -7 37 2 22 -2 38 -10
41 -6 2 -12 -1 -12 -7 0 -6 -5 -11 -11 -11 -9 0 -9 4 0 14 8 10 5 19 -13 39
-13 14 -27 23 -32 19 -4 -4 -4 -1 0 6 8 14 5 15 -18 6 -22 -8 -20 -41 2 -47 9
-3 -2 -4 -25 -2 -38 2 -41 1 -33 -19 15 -41 50 -103 70 -124 11 -11 27 -43 35
-69 9 -26 22 -59 29 -73 16 -29 41 -116 52 -180 4 -25 9 -48 10 -52 1 -5 2
-24 3 -43 1 -24 6 -35 16 -35 8 0 15 -5 15 -11 0 -5 -4 -8 -9 -5 -5 4 -10 -34
-10 -89 -1 -71 2 -94 12 -92 8 1 12 -16 13 -58 2 -53 1 -56 -6 -20 -4 22 -8
-102 -10 -280 -1 -176 -4 -333 -6 -350 -2 -18 -17 -42 -39 -62 -39 -36 -51
-40 -54 -20 -1 6 -5 41 -10 77 -8 67 -25 120 -48 156 -7 12 -10 29 -7 39 5 11
3 16 -3 12 -11 -7 -63 83 -63 110 0 9 -3 13 -7 10 -5 -6 -43 45 -43 58 0 14
18 2 23 -15 3 -11 10 -20 16 -20 6 0 8 8 4 18 -4 12 -1 11 11 -5 9 -12 13 -28
10 -37 -3 -9 -1 -16 5 -16 6 0 11 -12 11 -26 0 -19 4 -25 15 -21 8 4 17 2 20
-4 4 -5 10 -7 14 -5 4 3 8 -9 9 -27 1 -28 6 -69 12 -102 5 -24 19 75 18 125
l-1 55 -7 -60 c-7 -60 -7 -60 -10 -15 -2 25 -3 64 -4 88 -1 24 -5 41 -11 38
-6 -2 -9 12 -6 38 l5 41 6 -35 c9 -52 23 379 15 450 -4 37 -11 58 -17 54 -7
-5 -7 -1 -1 10 18 33 -42 286 -68 286 -5 0 -9 -4 -9 -10 0 -5 -7 -7 -16 -3
-13 5 -13 7 -2 14 12 8 4 13 -14 10 -5 0 -8 4 -8 9 0 6 -6 10 -14 10 -8 0 -17
6 -19 13 -9 21 -27 -15 -27 -55 0 -34 3 -38 25 -38 23 0 25 -4 25 -40 0 -38
-2 -40 -30 -40 -28 0 -30 2 -30 40 0 22 -4 40 -9 40 -12 0 -1 74 11 78 4 2 8
10 8 18 0 9 -5 12 -10 9 -6 -3 -13 1 -16 9 -3 9 -11 13 -17 9 -7 -4 -8 0 -3
13 5 10 11 27 13 37 4 11 13 17 27 15 16 -2 22 3 24 25 2 20 -1 27 -13 27 -12
0 -15 6 -10 20 4 11 2 20 -4 20 -10 0 -16 -22 -12 -43 1 -5 -3 -6 -9 -2 -5 3
-7 18 -4 32 5 18 3 24 -4 19 -7 -4 -20 -2 -29 3 -16 9 -16 10 -2 11 9 0 19 6
22 14 7 18 104 66 133 66 13 0 26 5 29 11 7 10 41 27 57 28 4 1 29 -21 57 -48z
m-5649 -12 c71 -28 162 -101 146 -116 -3 -3 -15 6 -27 21 l-21 27 -33 -33
c-31 -29 -39 -58 -13 -42 6 4 8 2 5 -3 -4 -6 0 -16 8 -23 8 -7 15 -9 15 -6 0
4 9 2 21 -5 13 -7 18 -14 12 -20 -24 -24 -213 131 -213 174 0 16 17 57 23 57
1 0 36 -14 77 -31z m230 27 c0 -2 -7 -9 -15 -16 -13 -11 -14 -10 -9 4 5 14 24
23 24 12z m3865 -7 c-4 -5 1 -19 11 -30 9 -10 14 -22 11 -26 -11 -10 -46 37
-40 53 3 8 9 14 15 14 5 0 6 -5 3 -11z m-3675 -13 c0 -3 -4 -8 -10 -11 -5 -3
-10 -1 -10 4 0 6 5 11 10 11 6 0 10 -2 10 -4z m3710 -6 c0 -5 -2 -10 -4 -10
-3 0 -8 5 -11 10 -3 6 -1 10 4 10 6 0 11 -4 11 -10z m-3871 -22 c8 -2 15 -14
16 -25 1 -20 0 -20 -26 5 -15 14 -25 30 -22 35 3 5 8 5 12 0 3 -6 12 -12 20
-15z m4011 2 c14 0 32 -5 40 -10 11 -8 4 -9 -24 -7 -51 5 -128 -15 -134 -33
-3 -13 -2 -12 7 0 7 10 11 11 11 3 0 -16 36 -53 44 -46 3 3 12 0 20 -6 8 -7
19 -11 23 -8 4 2 17 1 28 -4 16 -6 14 -8 -12 -8 -18 -1 -33 -5 -33 -10 0 -18
75 -2 89 18 7 12 20 21 29 21 18 0 -19 -34 -61 -57 -34 -17 -43 -13 -127 65
-43 40 -51 52 -35 52 13 0 16 3 8 8 -8 5 -9 13 -3 22 8 13 10 12 10 -2 0 -10
7 -18 15 -18 7 0 19 8 25 18 10 15 11 15 6 -3 -5 -17 -4 -17 11 3 11 16 19 20
27 12 5 -5 21 -10 36 -10z m1355 10 c3 -5 2 -10 -4 -10 -5 0 -13 5 -16 10 -3
6 -2 10 4 10 5 0 13 -4 16 -10z m-5210 -35 c-16 -8 -36 -14 -44 -15 -28 0 19
26 47 27 l27 1 -30 -13z m5150 4 c11 -17 -1 -21 -15 -4 -8 9 -8 15 -2 15 6 0
14 -5 17 -11z m-1325 -31 c0 -18 -2 -20 -9 -8 -6 8 -7 18 -5 22 9 14 14 9 14
-14z m-25 1 c11 -17 0 -20 -21 -4 -17 13 -17 14 -2 15 9 0 20 -5 23 -11z m119
-4 c3 -8 1 -15 -4 -15 -6 0 -10 7 -10 15 0 8 2 15 4 15 2 0 6 -7 10 -15z
m-4014 -5 c0 -5 -4 -10 -9 -10 -5 0 -18 -3 -28 -7 -16 -6 -16 -5 -4 10 15 19
41 23 41 7z m-210 -20 c0 -5 -4 -10 -10 -10 -5 0 -10 5 -10 10 0 6 5 10 10 10
6 0 10 -4 10 -10z m727 4 c-3 -3 -12 -4 -19 -1 -8 3 -5 6 6 6 11 1 17 -2 13
-5z m-181 -30 c17 -14 17 -15 1 -10 -10 3 -32 6 -48 6 -18 0 -28 4 -24 10 9
15 49 12 71 -6z m4629 6 c-4 -6 -10 -8 -14 -6 -4 3 -8 -1 -8 -9 0 -8 5 -15 10
-15 5 0 7 -7 4 -14 -4 -10 -1 -13 9 -9 9 3 12 12 9 24 -5 15 -1 19 15 19 16 0
20 -4 16 -16 -3 -9 -6 -22 -6 -30 0 -8 -9 -14 -20 -14 -15 0 -20 -7 -20 -24 0
-14 4 -27 9 -30 4 -3 11 -25 15 -48 4 -23 11 -47 15 -53 29 -35 40 -419 16
-524 -14 -56 -14 -66 -1 -86 8 -13 23 -22 33 -21 12 1 17 -5 15 -16 -2 -11 3
-18 14 -18 10 0 14 -5 11 -14 -4 -11 -1 -13 11 -9 15 6 15 5 3 -11 -14 -16
-17 -15 -48 21 -19 21 -57 64 -86 96 -29 31 -57 70 -64 85 -14 32 -17 82 -4
82 4 0 6 -12 3 -26 -3 -19 -1 -25 7 -20 6 4 11 33 11 69 0 71 -8 109 -21 101
-5 -3 -9 0 -9 6 0 6 -4 9 -9 5 -23 -14 -41 76 -25 119 13 34 22 13 19 -41 -3
-47 -2 -51 4 -23 l8 35 2 -32 c2 -54 18 -37 20 20 1 73 -29 220 -43 208 -8 -7
-11 9 -12 54 -1 35 -5 72 -8 82 -7 16 -8 17 -19 2 -7 -9 -36 -27 -65 -39 -28
-12 -49 -26 -46 -31 3 -5 -2 -6 -11 -3 -20 8 -22 5 50 44 33 18 71 43 85 55
14 13 41 32 60 44 36 22 76 28 65 11z m402 -12 c-3 -8 -6 -5 -6 6 -1 11 2 17
5 13 3 -3 4 -12 1 -19z m-5512 -8 c3 -5 -3 -10 -15 -10 -12 0 -18 5 -15 10 3
6 10 10 15 10 5 0 12 -4 15 -10z m585 0 c0 -5 -4 -10 -10 -10 -5 0 -10 5 -10
10 0 6 5 10 10 10 6 0 10 -4 10 -10z m-610 -24 c0 -3 -4 -8 -10 -11 -5 -3 -10
-1 -10 4 0 6 5 11 10 11 6 0 10 -2 10 -4z m5516 -22 c-4 -9 -9 -15 -11 -12 -3
3 -3 13 1 22 4 9 9 15 11 12 3 -3 3 -13 -1 -22z m-5020 1 c-22 -17 -42 -19
-50 -6 -9 13 5 21 38 21 29 -1 30 -1 12 -15z m-281 -4 c-6 -5 -21 -12 -35 -15
-24 -7 -24 -6 -6 8 21 17 57 23 41 7z m4965 -31 c0 -11 -2 -20 -4 -20 -2 0 -6
9 -9 20 -3 11 -1 20 4 20 5 0 9 -9 9 -20z m27 -32 c-3 -8 -6 -5 -6 6 -1 11 2
17 5 13 3 -3 4 -12 1 -19z m-5057 0 c0 -7 -18 -26 -40 -41 -25 -18 -40 -23
-40 -15 1 26 37 57 78 67 1 1 2 -5 2 -11z m4800 -3 c0 -2 -10 -10 -22 -16 -21
-11 -22 -11 -9 4 13 16 31 23 31 12z m-4920 -69 c-23 -67 -38 -96 -50 -96 -19
0 12 99 42 138 23 27 26 9 8 -42z m4800 34 c-14 -11 -32 -19 -40 -19 -13 1
-13 1 0 6 8 4 21 12 28 20 7 7 19 13 25 13 7 0 1 -9 -13 -20z m700 5 c0 -8 -2
-15 -4 -15 -2 0 -6 7 -10 15 -3 8 -1 15 4 15 6 0 10 -7 10 -15z m-5130 -1 c0
-11 -34 -33 -50 -33 -10 -1 -6 6 10 19 26 20 40 25 40 14z m4448 -38 c39 2 43
0 40 -19 -2 -17 -9 -21 -30 -19 -16 1 -28 -2 -28 -8 0 -5 -5 -10 -12 -10 -6 0
-8 3 -5 6 7 8 -31 44 -45 44 -5 0 -16 -7 -25 -16 -14 -14 -13 -15 8 -12 38 5
32 -16 -8 -30 -43 -14 -70 -9 -33 6 14 6 19 11 13 11 -20 1 -10 24 17 42 15
10 33 13 45 9 11 -4 39 -6 63 -4z m157 -6 c-3 -5 -10 -10 -16 -10 -5 0 -9 5
-9 10 0 6 7 10 16 10 8 0 12 -4 9 -10z m200 0 c-3 -5 -12 -10 -18 -10 -7 0 -6
4 3 10 19 12 23 12 15 0z m-265 -16 c0 -6 7 -14 15 -18 20 -7 20 -56 0 -56
-11 0 -14 7 -9 25 6 24 -5 31 -38 26 -9 -1 -10 3 -3 22 7 17 35 18 35 1z
m-260 -34 c-6 -11 -15 -20 -21 -20 -6 0 -7 -4 -4 -10 3 -5 -5 -12 -19 -16 -31
-7 -56 -34 -33 -34 9 0 19 5 22 10 3 6 14 10 23 9 12 0 11 -3 -5 -9 -13 -5
-23 -14 -23 -19 0 -5 -18 -2 -39 7 -44 19 -44 24 1 46 36 19 41 20 33 6 -3 -5
-1 -10 5 -10 7 0 14 8 17 18 3 14 19 27 51 41 1 0 -2 -8 -8 -19z m-4616 -52
c-10 -18 -19 -27 -22 -20 -4 14 26 67 35 59 2 -3 -3 -20 -13 -39z m5346 21 c0
-6 -4 -7 -10 -4 -5 3 -10 11 -10 16 0 6 5 7 10 4 6 -3 10 -11 10 -16z m197
-16 c-3 -10 -5 -4 -5 12 0 17 2 24 5 18 2 -7 2 -21 0 -30z m-5317 10 c-1 -14
-30 -47 -36 -41 -8 8 14 48 26 48 6 0 10 -3 10 -7z m247 -15 c-3 -8 -6 -5 -6
6 -1 11 2 17 5 13 3 -3 4 -12 1 -19z m4193 12 c0 -5 -5 -10 -11 -10 -5 0 -7 5
-4 10 3 6 8 10 11 10 2 0 4 -4 4 -10z m80 -30 c0 -45 -7 -49 -41 -21 -24 19
-56 16 -96 -9 -16 -10 -14 -11 10 -7 28 4 47 -14 41 -41 -1 -7 0 -8 3 -2 2 5
12 10 21 10 12 0 13 -3 4 -12 -9 -9 -5 -17 14 -35 37 -34 9 -28 -37 9 -29 23
-36 34 -27 41 9 6 8 7 -5 3 -18 -6 -67 19 -67 34 0 5 12 10 28 12 20 2 26 8
24 21 -3 16 1 18 25 13 18 -4 40 -1 59 9 41 21 44 20 44 -25z m194 25 c3 -9 0
-15 -9 -15 -9 0 -12 6 -9 15 4 8 7 15 9 15 2 0 5 -7 9 -15z m213 -52 c-3 -10
-5 -2 -5 17 0 19 2 27 5 18 2 -10 2 -26 0 -35z m-297 7 c-19 -13 -30 -13 -30
0 0 6 10 10 23 10 18 0 19 -2 7 -10z m475 -94 c5 -23 8 -27 16 -15 5 7 9 10 9
4 0 -5 -4 -16 -9 -24 -13 -20 -27 11 -34 74 -6 50 1 35 18 -39z m25 53 c0 -5
-4 -9 -10 -9 -5 0 -10 7 -10 16 0 8 5 12 10 9 6 -3 10 -10 10 -16z m-454 -9
c10 0 14 -13 14 -40 0 -29 4 -40 15 -40 14 0 13 -4 0 -37 -16 -39 -42 -75 -30
-40 7 17 -9 24 -19 8 -8 -12 -56 -20 -56 -10 0 5 7 9 16 9 11 0 14 8 12 33 -2
23 -8 32 -20 31 -10 -1 -14 4 -11 12 3 9 20 14 44 14 28 0 39 4 39 15 0 11
-11 15 -40 15 -22 0 -40 -4 -40 -10 0 -5 -12 -13 -26 -16 -32 -8 -47 11 -31
38 13 19 37 25 37 8 0 -5 5 -10 10 -10 6 0 10 7 10 16 0 13 7 15 31 10 17 -3
38 -6 45 -6z m251 -37 c-3 -10 -5 -4 -5 12 0 17 2 24 5 18 2 -7 2 -21 0 -30z
m382 0 c-1 -34 -2 -35 -9 -13 -11 36 -11 50 0 50 6 0 10 -17 9 -37z m231 27
c0 -5 -2 -10 -4 -10 -3 0 -8 5 -11 10 -3 6 -1 10 4 10 6 0 11 -4 11 -10z
m-5555 -24 c13 -19 14 -28 4 -50 -15 -33 -27 -33 -35 -1 -6 24 1 75 11 75 2 0
12 -11 20 -24z m4528 0 c-8 -15 -11 -15 -28 -1 -20 16 -19 16 3 10 14 -4 22
-2 22 6 0 7 3 10 6 6 3 -3 2 -13 -3 -21z m-4332 -69 c-13 -13 -15 21 -3 50 6
15 8 13 10 -11 2 -16 -1 -33 -7 -39z m5156 31 c-3 -7 -5 -2 -5 12 0 14 2 19 5
13 2 -7 2 -19 0 -25z m30 0 c-3 -7 -5 -2 -5 12 0 14 2 19 5 13 2 -7 2 -19 0
-25z m-804 -15 c-23 -9 -14 -25 9 -17 21 6 22 5 8 -11 -14 -17 -13 -18 3 -12
9 3 17 2 17 -3 0 -20 -18 -18 -46 5 -24 21 -27 26 -14 35 8 5 20 9 25 9 6 0 4
-3 -2 -6z m387 -73 c0 -64 -3 -80 -15 -80 -12 0 -15 16 -15 80 0 64 3 80 15
80 12 0 15 -16 15 -80z m190 -15 c0 -81 -2 -95 -16 -95 -14 0 -16 7 -9 53 4
28 8 66 10 82 3 48 5 55 10 55 3 0 5 -43 5 -95z m-5220 39 c0 -19 -4 -34 -10
-34 -5 0 -10 18 -10 41 0 24 4 38 10 34 6 -3 10 -22 10 -41z m5244 -10 c3 -8
2 -12 -4 -9 -6 3 -10 10 -10 16 0 14 7 11 14 -7z m153 -6 c-3 -8 -6 -5 -6 6
-1 11 2 17 5 13 3 -3 4 -12 1 -19z m-664 -32 c3 3 16 0 29 -7 12 -7 26 -12 31
-11 4 1 7 -2 7 -7 0 -5 8 -12 19 -16 22 -7 23 -46 1 -52 -13 -4 -13 -3 0 6 13
10 13 12 0 21 -21 14 -33 12 -24 -2 5 -8 0 -7 -12 2 -25 20 -94 87 -73 72 9
-7 18 -9 22 -6z m757 -81 c0 -30 -3 -55 -7 -55 -5 0 -6 25 -5 55 5 71 12 71
12 0z m-4970 16 c0 -5 -7 -12 -16 -15 -24 -9 -28 -7 -14 9 14 17 30 20 30 6z
m4910 -31 c0 -22 -4 -40 -10 -40 -5 0 -10 18 -10 40 0 22 5 40 10 40 6 0 10
-18 10 -40z m-5506 -60 c-7 -7 -44 39 -44 54 1 6 12 -2 25 -19 13 -16 22 -32
19 -35z m5141 -6 c-14 -15 -55 -19 -55 -6 0 11 43 29 57 24 9 -3 9 -7 -2 -18z
m95 -8 c0 -29 3 -33 20 -29 12 3 20 0 20 -6 0 -7 4 -10 9 -6 11 6 18 -60 12
-122 -2 -35 -7 -43 -23 -43 -17 0 -20 5 -17 44 3 31 1 42 -8 39 -8 -3 -14 13
-19 46 -4 28 -10 51 -15 51 -5 0 -9 14 -9 30 0 20 5 30 15 30 10 0 15 -10 15
-34z m313 -73 c-6 -62 -18 -68 -28 -16 -4 21 -12 41 -18 45 -8 5 -7 14 2 34
12 27 12 27 31 8 15 -15 17 -29 13 -71z m-223 47 c0 -11 -4 -20 -9 -20 -5 0
-7 9 -4 20 3 11 7 20 9 20 2 0 4 -9 4 -20z m-4680 -25 c-7 -9 -15 -13 -17 -11
-7 7 7 26 19 26 6 0 6 -6 -2 -15z m4424 -11 c9 -24 7 -28 -9 -14 -17 14 -20
30 -6 30 5 0 12 -7 15 -16z m66 10 c0 -3 -6 -12 -14 -20 -13 -12 -15 -12 -13
6 1 17 27 31 27 14z m350 -1 c0 -5 -5 -15 -10 -23 -8 -12 -10 -11 -10 8 0 12
5 22 10 22 6 0 10 -3 10 -7z m-5283 -9 c-3 -3 -12 -4 -19 -1 -8 3 -5 6 6 6 11
1 17 -2 13 -5z m174 -50 c24 -8 62 -19 84 -24 l40 -8 -43 -1 c-53 -1 -132 17
-152 35 -12 12 -12 14 7 14 11 0 40 -7 64 -16z m335 -19 c-19 -15 -46 -20 -46
-10 0 6 40 24 55 24 6 0 1 -6 -9 -14z m4444 -5 c0 -5 -2 -10 -4 -10 -3 0 -8 5
-11 10 -3 6 -1 10 4 10 6 0 11 -4 11 -10z m-4542 -17 c2 -9 -7 -13 -28 -13
-28 0 -31 2 -20 15 15 18 41 16 48 -2z m4532 -54 c0 -6 9 -8 23 -4 12 3 18 3
12 -2 -5 -5 -13 -12 -16 -16 -3 -4 -14 2 -24 13 -10 11 -13 20 -7 20 7 0 12
-5 12 -11z m402 -184 l-9 -70 -2 80 c-1 88 12 160 17 95 1 -19 -1 -66 -6 -105z
m25 -12 c-2 -21 -4 -4 -4 37 0 41 2 58 4 38 2 -21 2 -55 0 -75z m-100 -55 c-2
-18 -4 -4 -4 32 0 36 2 50 4 33 2 -18 2 -48 0 -65z m0 -110 c-3 -8 -6 -5 -6 6
-1 11 2 17 5 13 3 -3 4 -12 1 -19z m-2 -118 c3 -6 -1 -7 -9 -4 -18 7 -21 14
-7 14 6 0 13 -4 16 -10z m61 -17 c-3 -10 -6 -38 -7 -63 -1 -25 -6 -50 -10 -55
-4 -6 -4 -28 1 -50 5 -21 6 -53 2 -69 -6 -29 -7 -28 -14 19 -5 28 -9 60 -11
72 -2 23 -15 42 -14 21 1 -32 -4 -49 -13 -43 -6 4 -10 -7 -10 -24 0 -17 5 -31
10 -31 6 0 10 -18 10 -40 0 -31 3 -38 15 -34 10 4 15 0 15 -15 0 -12 -4 -21
-10 -21 -5 0 -10 6 -10 13 0 9 -2 9 -9 -1 -6 -11 -11 -10 -25 3 -9 9 -16 13
-17 8 0 -4 -3 -46 -5 -92 -3 -66 0 -89 12 -102 12 -13 13 -24 5 -50 -9 -28
-10 -29 -7 -6 2 15 0 27 -4 27 -7 0 -33 121 -51 234 -5 38 -12 72 -14 75 -10
17 -15 131 -6 131 6 0 11 8 11 18 0 14 -2 15 -10 2 -8 -12 -10 -11 -10 6 0 12
6 21 16 21 13 0 15 -8 9 -45 -4 -24 -8 -50 -9 -56 -2 -6 -1 -7 2 -2 2 4 8 3
12 -4 5 -7 8 -3 8 12 0 29 26 74 48 82 9 3 12 1 9 -4 -3 -6 1 -10 9 -10 9 0
16 -7 16 -16 0 -8 4 -13 9 -10 8 5 18 47 23 99 1 9 8 17 16 17 8 0 11 -7 8
-17z m-69 -405 c-3 -8 -6 -5 -6 6 -1 11 2 17 5 13 3 -3 4 -12 1 -19z m20 -25
c-3 -10 -5 -2 -5 17 0 19 2 27 5 18 2 -10 2 -26 0 -35z m-12 -113 c-9 -41 -17
-33 -9 9 4 17 9 30 11 27 3 -2 2 -19 -2 -36z"/>
<path d="M3396 4985 c18 -14 18 -14 0 -15 -15 0 -16 -3 -6 -15 8 -9 30 -15 56
-15 36 0 44 -3 44 -19 0 -22 40 -36 52 -18 5 8 8 6 8 -7 0 -12 5 -16 16 -12
12 4 14 1 9 -13 -3 -12 0 -23 9 -28 8 -4 16 -19 19 -33 4 -21 4 -20 6 8 1 36
15 42 31 13 7 -15 6 -23 -6 -35 -14 -15 -13 -16 10 -16 25 0 31 9 26 40 -2 12
2 12 17 -3 25 -22 51 -24 33 -2 -7 8 -18 15 -24 15 -7 0 -27 13 -46 30 -19 16
-40 29 -46 30 -6 0 -17 7 -24 15 -19 23 -111 67 -127 61 -8 -3 -11 -1 -8 4 3
6 -6 15 -20 20 -38 14 -52 12 -29 -5z"/>
<path d="M1880 4896 c0 -2 7 -6 15 -10 8 -3 15 -1 15 4 0 6 -7 10 -15 10 -8 0
-15 -2 -15 -4z"/>
<path d="M3906 4891 c-3 -4 -19 -11 -36 -14 -41 -9 -38 -19 13 -39 47 -20 71
-23 62 -8 -3 6 -2 10 3 10 15 0 67 49 59 56 -4 4 -7 3 -7 -3 0 -6 -20 -13 -44
-14 -32 -3 -42 -1 -39 9 6 14 -3 17 -11 3z m-9 -27 c-3 -3 -12 -4 -19 -1 -8 3
-5 6 6 6 11 1 17 -2 13 -5z"/>
<path d="M1693 4783 c9 -2 23 -2 30 0 6 3 -1 5 -18 5 -16 0 -22 -2 -12 -5z"/>
<path d="M1581 4653 c-33 -7 -73 -33 -68 -47 2 -6 20 -10 41 -9 40 2 90 28 81
43 -3 5 5 11 17 13 14 3 9 4 -12 4 -19 0 -46 -2 -59 -4z"/>
<path d="M1470 4595 c0 -14 -4 -25 -10 -25 -5 0 -7 7 -4 15 4 8 1 15 -4 15
-21 0 -23 -20 -5 -45 20 -27 53 -33 53 -10 0 8 5 15 12 15 6 0 4 8 -6 19 -10
11 -15 25 -11 30 3 6 -1 11 -9 11 -10 0 -16 -9 -16 -25z"/>
<path d="M1410 4556 c0 -15 18 -31 26 -23 7 7 -7 37 -17 37 -5 0 -9 -6 -9 -14z"/>
<path d="M3338 4553 c7 -3 16 -2 19 1 4 3 -2 6 -13 5 -11 0 -14 -3 -6 -6z"/>
<path d="M3404 4525 c11 -8 25 -15 32 -15 6 0 27 -13 45 -30 19 -16 41 -30 50
-30 9 0 19 -7 23 -15 3 -8 13 -15 23 -15 15 0 14 4 -7 23 -14 12 -37 28 -52
34 -16 7 -28 19 -28 28 0 9 -9 15 -25 15 -14 0 -25 5 -25 10 0 6 -12 10 -27
10 -27 -1 -27 -1 -9 -15z"/>
<path d="M4685 4520 c-3 -5 -2 -10 4 -10 5 0 13 5 16 10 3 6 2 10 -4 10 -5 0
-13 -4 -16 -10z"/>
<path d="M1430 4494 c0 -14 4 -23 9 -20 5 3 7 15 4 26 -7 28 -13 25 -13 -6z"/>
<path d="M3255 4450 c3 -5 13 -10 21 -10 8 0 14 5 14 10 0 6 -9 10 -21 10 -11
0 -17 -4 -14 -10z"/>
<path d="M3267 4370 c-3 -11 -1 -23 4 -26 5 -3 9 6 9 20 0 31 -6 34 -13 6z"/>
<path d="M4301 4334 c0 -11 3 -14 6 -6 3 7 2 16 -1 19 -3 4 -6 -2 -5 -13z"/>
<path d="M1163 4213 c-13 -2 -23 -8 -23 -13 0 -15 26 -18 43 -5 17 13 23 26
10 24 -5 -1 -18 -4 -30 -6z"/>
<path d="M2871 4153 c-10 -12 -8 -13 16 -7 36 9 38 10 16 16 -10 3 -24 -1 -32
-9z"/>
<path d="M2945 4150 c-15 -5 -11 -8 20 -13 46 -8 54 -4 23 10 -13 6 -32 7 -43
3z"/>
<path d="M3028 4123 c20 -8 14 -22 -8 -16 -11 3 -20 1 -20 -5 0 -6 17 -11 38
-10 20 0 50 -5 65 -11 16 -6 36 -11 45 -10 14 0 14 2 2 6 -8 3 -39 16 -68 29
-29 13 -56 24 -60 23 -4 0 -1 -3 6 -6z"/>
<path d="M2948 4113 c6 -2 18 -2 25 0 6 3 1 5 -13 5 -14 0 -19 -2 -12 -5z"/>
<path d="M1119 4077 c5 -5 19 -7 32 -5 20 3 19 5 -9 9 -20 3 -29 2 -23 -4z"/>
<path d="M3673 4063 c9 -2 25 -2 35 0 9 3 1 5 -18 5 -19 0 -27 -2 -17 -5z"/>
<path d="M3608 4053 c6 -2 18 -2 25 0 6 3 1 5 -13 5 -14 0 -19 -2 -12 -5z"/>
<path d="M4410 3992 c0 -5 7 -15 15 -22 8 -7 15 -8 15 -2 0 5 -7 15 -15 22 -8
7 -15 8 -15 2z"/>
<path d="M896 3885 c-19 -15 -19 -15 2 -15 13 0 22 6 22 15 0 18 0 18 -24 0z"/>
<path d="M959 3887 c5 -5 19 -7 32 -5 20 3 19 5 -9 9 -20 3 -29 2 -23 -4z"/>
<path d="M4480 4750 c0 -5 4 -10 9 -10 6 0 13 5 16 10 3 6 -1 10 -9 10 -9 0
-16 -4 -16 -10z"/>
<path d="M5274 4582 c2 -20 11 -39 24 -48 27 -19 28 -5 3 27 -10 13 -21 31
-24 39 -3 8 -4 0 -3 -18z"/>
<path d="M5460 4241 c10 -7 11 -11 3 -11 -7 0 -13 -4 -13 -10 0 -5 7 -7 15 -3
19 7 15 25 -6 31 -11 3 -11 2 1 -7z"/>
<path d="M3875 4660 c3 -5 16 -10 28 -10 18 0 19 2 7 10 -20 13 -43 13 -35 0z"/>
<path d="M4030 4470 c0 -5 5 -10 10 -10 6 0 10 5 10 10 0 6 -4 10 -10 10 -5 0
-10 -4 -10 -10z"/>
<path d="M4041 4423 c0 -25 1 -26 9 -8 12 27 12 35 0 35 -5 0 -10 -12 -9 -27z"/>
<path d="M3140 3737 c-60 -30 -64 -108 -7 -135 83 -40 162 71 91 127 -31 24
-49 26 -84 8z"/>
<path d="M4776 4391 c-4 -5 1 -8 9 -7 21 3 31 16 12 16 -9 0 -18 -4 -21 -9z"/>
<path d="M5100 4180 c-9 -6 -10 -10 -3 -10 6 0 15 5 18 10 8 12 4 12 -15 0z"/>
<path d="M5845 3705 c-3 -14 -8 -37 -11 -52 -4 -20 -2 -25 5 -18 6 6 13 30 16
53 6 45 -1 58 -10 17z"/>
<path d="M5880 3642 c0 -14 6 -22 16 -22 14 0 15 3 3 18 -7 9 -15 19 -16 21
-2 2 -3 -5 -3 -17z"/>
<path d="M5960 2600 c0 -5 5 -10 10 -10 6 0 10 5 10 10 0 6 -4 10 -10 10 -5 0
-10 -4 -10 -10z"/>
<path d="M5980 2551 c0 -5 5 -13 10 -16 6 -3 10 -2 10 4 0 5 -4 13 -10 16 -5
3 -10 2 -10 -4z"/>
<path d="M320 3890 c0 -5 6 -11 13 -13 7 -3 5 -6 -5 -6 -20 -1 -23 -18 -9 -40
8 -12 13 -12 35 3 28 18 35 32 11 22 -8 -3 -15 -1 -15 4 0 5 7 10 16 12 10 2
5 7 -15 15 -17 6 -31 8 -31 3z"/>
<path d="M4610 3756 c0 -2 7 -7 16 -10 8 -3 12 -2 9 4 -6 10 -25 14 -25 6z"/>
<path d="M5130 3450 c-8 -5 -12 -11 -9 -14 3 -3 14 1 25 9 21 16 8 20 -16 5z"/>
<path d="M5495 3270 c3 -5 10 -10 16 -10 5 0 9 5 9 10 0 6 -7 10 -16 10 -8 0
-12 -4 -9 -10z"/>
<path d="M6060 2091 c0 -6 4 -13 10 -16 6 -3 7 1 4 9 -7 18 -14 21 -14 7z"/>
<path d="M6101 1904 c0 -11 3 -14 6 -6 3 7 2 16 -1 19 -3 4 -6 -2 -5 -13z"/>
<path d="M6317 3493 c-4 -3 -7 -13 -7 -22 1 -13 3 -13 11 2 11 19 8 33 -4 20z"/>
<path d="M6376 2368 c-9 -62 -14 -135 -11 -163 3 -34 2 -42 -4 -25 -7 22 -9
19 -15 -25 -3 -27 -11 -72 -16 -100 -12 -60 -22 -237 -11 -185 7 31 9 32 16
15 5 -11 17 -26 27 -33 13 -10 18 -25 16 -55 l-1 -42 -4 43 c-3 34 -8 42 -24
42 -11 0 -22 -7 -25 -15 -4 -8 -10 -12 -15 -9 -5 3 -9 -20 -9 -51 0 -37 4 -54
10 -50 6 4 9 23 6 43 -4 35 -4 34 20 -16 18 -39 29 -52 40 -48 8 3 13 2 10 -2
-2 -4 -1 -14 4 -22 6 -9 9 152 8 398 -1 226 -2 412 -3 412 -1 0 -9 -51 -19
-112z"/>
<path d="M6345 1680 c-3 -5 -17 -7 -29 -4 -26 6 -26 5 -51 -130 -11 -63 -11
-71 5 -89 18 -18 18 -18 25 2 3 12 12 27 18 34 17 18 67 120 67 136 0 11 -3
11 -15 1 -18 -15 -21 1 -5 30 11 20 -3 39 -15 20z"/>
</g>
</svg>
